<?xml version="1.0" standalone="no"?>
<!DOCTYPE svg PUBLIC "-//W3C//DTD SVG 20010904//EN"
 "http://www.w3.org/TR/2001/REC-SVG-20010904/DTD/svg10.dtd">
<svg version="1.0" xmlns="http://www.w3.org/2000/svg"
 width="560.000000pt" height="560.000000pt" viewBox="0 0 560.000000 560.000000"
 preserveAspectRatio="xMidYMid meet">

<g transform="translate(0.000000,560.000000) scale(0.100000,-0.100000)"
fill="#fff" stroke="none">

<path d="M2580 5450 c-351 -34 -640 -114 -945 -265 -289 -142 -512 -302 -731
-526 -215 -221 -354 -417 -489 -694 -130 -265 -201 -494 -247 -790 -28 -185
-30 -529 -5 -715 69 -493 267 -955 574 -1335 93 -115 292 -313 408 -405 285
-226 668 -415 1020 -501 222 -54 375 -72 625 -72 439 -1 795 80 1175 267 290
143 512 303 731 527 215 221 354 417 489 694 130 265 201 494 247 790 28 185
30 529 5 715 -69 493 -267 955 -574 1335 -93 115 -292 313 -408 405 -287 228
-682 421 -1033 504 -253 60 -608 88 -842 66z m-284 -904 c128 -60 221 -191
327 -461 90 -231 178 -519 288 -941 28 -110 71 -273 94 -364 78 -298 166 -623
196 -725 91 -300 175 -525 197 -525 4 0 27 44 49 98 125 296 282 900 494 1900
50 237 56 254 97 303 43 50 85 69 152 69 121 0 205 -85 204 -205 -2 -125 -288
-1389 -400 -1765 -159 -533 -297 -787 -472 -868 -48 -22 -64 -24 -146 -20 -85
3 -96 6 -153 41 -75 46 -137 120 -197 237 -121 235 -216 542 -466 1505 -154
595 -246 907 -328 1110 -51 128 -64 155 -72 155 -11 0 -71 -144 -125 -300
-120 -345 -261 -925 -439 -1810 -187 -926 -167 -856 -255 -911 -64 -41 -148
-41 -212 0 -25 16 -57 46 -70 67 -42 68 -34 138 75 679 100 497 153 749 186
895 10 47 33 148 50 225 165 729 323 1215 463 1425 60 90 154 173 222 198 17
6 66 11 110 11 64 1 90 -4 131 -23z m2139 -5 c43 -19 90 -68 107 -110 16 -41
11 -130 -12 -222 -27 -110 -38 -136 -74 -177 -97 -110 -265 -90 -330 40 -33
66 -33 115 0 238 14 52 28 105 31 116 8 36 64 95 107 115 52 24 120 24 171 0z" fill="#f00"/>
<path d="M2106 4460 c-147 -47 -281 -296 -430 -802 -53 -180 -198 -767 -251
-1018 -20 -96 -54 -258 -76 -360 -22 -102 -44 -210 -49 -240 -5 -30 -41 -210
-79 -400 -39 -190 -71 -366 -71 -391 0 -56 24 -88 73 -96 42 -6 72 8 91 45 7
15 39 158 70 317 32 160 73 367 92 460 20 94 59 287 89 430 80 391 186 839
257 1085 43 151 46 161 56 200 27 106 143 401 186 475 35 58 84 115 101 115
20 0 72 -64 104 -128 45 -91 128 -301 161 -414 17 -56 42 -139 55 -183 57
-188 195 -698 265 -980 16 -66 43 -167 59 -225 16 -58 48 -172 70 -255 157
-562 288 -847 422 -915 51 -27 128 -26 180 1 148 75 279 348 435 909 30 107
68 251 84 320 17 69 46 190 65 270 20 80 55 237 80 350 24 113 58 266 75 340
71 311 75 353 38 387 -31 28 -60 35 -91 24 -52 -20 -64 -54 -133 -391 -19 -96
-51 -240 -69 -320 -18 -80 -45 -197 -60 -260 -61 -269 -157 -646 -207 -815
-40 -132 -138 -400 -173 -470 -45 -91 -105 -169 -132 -173 -37 -5 -107 113
-179 300 -43 114 -163 503 -209 683 -20 77 -56 212 -80 300 -24 88 -55 210
-70 270 -14 61 -50 198 -80 305 -29 107 -65 238 -79 290 -35 131 -127 416
-171 530 -84 221 -177 370 -256 410 -47 24 -121 33 -163 20z"/>
</g>
</svg>
