<svg id="svg" version="1.1" xmlns="http://www.w3.org/2000/svg" xmlns:xlink="http://www.w3.org/1999/xlink" width="400" height="400" viewBox="0, 0, 400,400">
  <defs>
    <radialGradient id="grad1" cx="50%" cy="50%" r="50%" fx="50%" fy="50%">
      <stop offset="10%" style="stop-color:rgb(0,255,127);stop-opacity:0.9" />
      <stop offset="35%" style="stop-color:rgb(0,127,255);stop-opacity:0.9" />
      <stop offset="50%" style="stop-color:rgb(195,195,195);stop-opacity:0.9" />
    </radialGradient>
  </defs>
    <g id="svgg">
        <path id="path0" d="M142.843 58.033 C 128.189 60.911,115.132 85.985,100.993 138.400 C 100.192 141.370,99.016 145.690,98.380 148.000 C 94.820 160.929,85.964 199.252,79.846 228.200 C 72.348 263.682,59.198 330.122,59.202 332.503 C 59.216 340.425,68.050 343.316,72.122 336.730 C 73.153 335.062,74.092 330.761,81.206 295.135 C 101.009 195.948,111.544 150.725,123.073 115.400 C 130.698 92.038,139.634 74.611,144.631 73.357 C 151.647 71.596,162.120 94.586,175.536 141.200 C 179.369 154.520,182.603 166.471,188.145 187.800 C 197.473 223.704,201.494 239.039,203.450 246.173 C 223.442 319.097,233.709 339.400,250.592 339.400 C 273.688 339.400,288.853 298.937,320.599 152.600 C 326.318 126.238,326.568 124.913,326.235 122.695 C 325.259 116.185,317.435 114.165,313.816 119.490 C 312.134 121.966,312.484 120.509,303.588 162.000 C 279.654 273.619,260.133 330.903,248.506 323.629 C 244.335 321.019,237.810 307.701,231.345 288.600 C 224.616 268.720,219.634 250.922,205.200 195.200 C 187.471 126.754,179.146 99.901,169.485 80.000 C 161.237 63.007,152.826 56.072,142.843 58.033 " 
                stroke="none" fill="none" fill-rule="evenodd">
        </path>
        <path id="path1" d="M138.033 44.413 C 122.059 47.742,109.540 64.440,97.705 98.200 C 92.991 111.647,90.609 119.314,86.829 133.200 C 86.141 135.730,85.230 138.970,84.805 140.400 C 84.381 141.830,82.223 150.380,80.010 159.400 C 77.797 168.420,75.894 176.160,75.783 176.600 C 75.671 177.040,75.136 179.470,74.593 182.000 C 74.051 184.530,72.786 190.110,71.783 194.400 C 70.779 198.690,69.351 205.170,68.608 208.800 C 67.866 212.430,66.551 218.550,65.686 222.400 C 64.131 229.323,63.710 231.327,61.021 244.600 C 60.263 248.340,58.903 254.910,57.999 259.200 C 57.095 263.490,56.021 268.890,55.612 271.200 C 55.202 273.510,54.486 277.200,54.019 279.400 C 53.552 281.600,52.286 287.900,51.205 293.400 C 47.830 310.569,45.946 320.066,45.173 323.800 C 42.794 335.290,44.420 342.898,50.563 349.033 C 61.057 359.513,79.222 356.628,85.588 343.470 C 87.296 339.940,87.781 338.198,89.611 329.000 C 92.332 315.325,94.845 302.626,95.983 296.800 C 96.648 293.390,97.921 287.090,98.810 282.800 C 99.699 278.510,100.785 273.020,101.225 270.600 C 101.664 268.180,102.398 264.490,102.856 262.400 C 104.236 256.110,105.042 252.234,106.935 242.800 C 108.545 234.772,109.279 231.362,111.974 219.400 C 112.748 215.961,113.197 213.842,114.346 208.200 C 122.106 170.087,142.204 100.000,145.373 100.000 C 146.044 100.000,155.983 128.233,157.835 135.400 C 158.176 136.720,159.057 139.780,159.793 142.200 C 163.991 155.995,169.965 178.027,177.363 207.000 C 180.279 218.422,183.464 230.536,186.669 242.400 C 187.887 246.910,189.564 253.210,190.396 256.400 C 191.227 259.590,192.547 264.270,193.329 266.800 C 194.112 269.330,195.584 274.370,196.600 278.000 C 209.710 324.802,222.953 348.002,239.920 353.887 C 243.972 355.293,254.606 355.706,258.838 354.622 C 272.455 351.133,284.466 337.004,293.538 313.800 C 293.968 312.700,294.895 310.360,295.599 308.600 C 297.558 303.698,306.000 278.066,306.000 277.020 C 306.000 276.771,306.730 274.146,307.621 271.184 C 308.513 268.223,310.150 262.290,311.258 258.000 C 312.367 253.710,313.979 247.500,314.841 244.200 C 315.703 240.900,316.852 236.310,317.395 234.000 C 319.985 222.991,320.983 218.697,323.022 209.800 C 324.232 204.520,325.676 198.130,326.231 195.600 C 326.786 193.070,327.600 189.470,328.042 187.600 C 328.483 185.730,329.003 183.480,329.198 182.600 C 329.393 181.720,329.915 179.380,330.358 177.400 C 330.802 175.420,331.368 172.630,331.616 171.200 C 331.864 169.770,332.699 165.810,333.471 162.400 C 342.786 121.261,342.922 115.516,334.764 107.533 C 333.421 106.219,332.385 105.092,332.461 105.029 C 332.538 104.965,333.860 104.535,335.400 104.073 C 341.385 102.278,345.638 98.664,348.431 93.000 C 350.319 89.170,354.138 74.414,354.546 69.371 C 356.700 42.733,320.819 34.865,311.814 60.000 C 305.182 78.513,305.605 91.041,313.122 98.742 C 315.524 101.203,315.527 101.194,312.032 102.216 C 304.165 104.519,299.140 110.857,296.663 121.600 C 294.862 129.410,294.311 131.936,293.215 137.400 C 291.581 145.554,290.172 152.177,289.004 157.200 C 288.467 159.510,287.561 163.650,286.989 166.400 C 285.897 171.661,283.658 181.739,281.346 191.800 C 280.588 195.100,279.718 199.060,279.413 200.600 C 278.599 204.709,272.066 231.445,269.590 240.800 C 268.920 243.330,267.825 247.560,267.156 250.200 C 264.773 259.611,259.788 275.558,254.379 291.077 C 253.256 294.299,251.365 298.400,251.001 298.400 C 249.981 298.400,241.527 273.294,236.387 255.000 C 232.873 242.496,230.527 233.919,229.166 228.600 C 228.321 225.300,227.167 220.890,226.602 218.800 C 225.480 214.650,219.449 191.498,216.339 179.400 C 215.264 175.220,213.412 168.200,212.222 163.800 C 211.033 159.400,209.314 153.010,208.402 149.600 C 207.490 146.190,206.053 141.060,205.208 138.200 C 204.363 135.340,203.100 130.930,202.400 128.400 C 201.701 125.870,200.354 121.370,199.407 118.400 C 198.460 115.430,197.096 111.110,196.375 108.800 C 184.491 70.684,172.848 52.058,156.800 45.491 C 153.549 44.160,142.335 43.516,138.033 44.413 M148.444 58.008 C 166.359 61.406,177.552 88.461,205.200 195.200 C 219.634 250.922,224.616 268.720,231.345 288.600 C 237.810 307.701,244.335 321.019,248.506 323.629 C 260.133 330.903,279.654 273.619,303.588 162.000 C 312.484 120.509,312.134 121.966,313.816 119.490 C 317.435 114.165,325.259 116.185,326.235 122.695 C 326.568 124.913,326.318 126.238,320.599 152.600 C 288.853 298.937,273.688 339.400,250.592 339.400 C 233.709 339.400,223.442 319.097,203.450 246.173 C 201.494 239.039,197.473 223.704,188.145 187.800 C 182.603 166.471,179.369 154.520,175.536 141.200 C 162.120 94.586,151.647 71.596,144.631 73.357 C 139.634 74.611,130.698 92.038,123.073 115.400 C 111.544 150.725,101.009 195.948,81.206 295.135 C 74.092 330.761,73.153 335.062,72.122 336.730 C 68.050 343.316,59.216 340.425,59.202 332.503 C 59.198 330.122,72.348 263.682,79.846 228.200 C 85.964 199.252,94.820 160.929,98.380 148.000 C 99.016 145.690,100.192 141.370,100.993 138.400 C 116.832 79.683,131.520 54.799,148.444 58.008 " 
                stroke="none" fill="url(#grad1)" fill-rule="evenodd">
        </path>
    </g></svg>